{"asset":{"version":"2.0","generator":"babylon.js glTF exporter for Autodesk Maya 2018.2 v20221031.2"},"scene":0,"scenes":[{"nodes":[0,4,5]}],"nodes":[{"children":[1,2,3],"name":"A2_1"},{"mesh":0,"translation":[-0.00112018769,-0.00209896266,0.0021248532],"scale":[10.2778158,0.373294026,2.65422773],"name":"pCube3"},{"mesh":1,"translation":[-0.0113732181,0.00179049245,-0.00176584593],"scale":[5.768633,3.33056259,1.82538188],"name":"opening_movie4"},{"mesh":2,"translation":[0.00159659982,-0.00179049245,0.005122225],"scale":[5.769587,1.0,2.96896172],"name":"pPlane3"},{"name":"transform1"},{"name":"transform2"}],"meshes":[{"primitives":[{"attributes":{"POSITION":1,"TANGENT":2,"NORMAL":3,"TEXCOORD_0":4},"indices":0,"material":0},{"attributes":{"POSITION":6,"TANGENT":7,"NORMAL":8,"TEXCOORD_0":9},"indices":5,"material":1}],"name":"pCube3"},{"primitives":[{"attributes":{"POSITION":11,"TANGENT":12,"NORMAL":13,"TEXCOORD_0":14},"indices":10,"material":0}],"name":"opening_movie4"},{"primitives":[{"attributes":{"POSITION":16,"TANGENT":17,"NORMAL":18,"TEXCOORD_0":19},"indices":15,"material":0}],"name":"pPlane3"}],"accessors":[{"bufferView":0,"componentType":5123,"count":876,"type":"SCALAR","name":"accessorIndices"},{"bufferView":1,"componentType":5126,"count":204,"max":[0.002819482,0.006719799,0.0019817045],"min":[-0.00281948224,0.005,-0.00500000035],"type":"VEC3","name":"accessorPositions"},{"bufferView":2,"componentType":5126,"count":204,"type":"VEC4","name":"accessorTangents"},{"bufferView":1,"byteOffset":2448,"componentType":5126,"count":204,"type":"VEC3","name":"accessorNormals"},{"bufferView":3,"componentType":5126,"count":204,"type":"VEC2","name":"accessorUVs"},{"bufferView":0,"byteOffset":1752,"componentType":5123,"count":168,"type":"SCALAR","name":"accessorIndices"},{"bufferView":1,"byteOffset":4896,"componentType":5126,"count":222,"max":[0.002819482,0.006719799,0.0019817045],"min":[-0.00281948224,0.005,-0.00500000035],"type":"VEC3","name":"accessorPositions"},{"bufferView":2,"byteOffset":3264,"componentType":5126,"count":222,"type":"VEC4","name":"accessorTangents"},{"bufferView":1,"byteOffset":7560,"componentType":5126,"count":222,"type":"VEC3","name":"accessorNormals"},{"bufferView":3,"byteOffset":1632,"componentType":5126,"count":222,"type":"VEC2","name":"accessorUVs"},{"bufferView":0,"byteOffset":2088,"componentType":5123,"count":6,"type":"SCALAR","name":"accessorIndices"},{"bufferView":1,"byteOffset":10224,"componentType":5126,"count":4,"max":[0.00643226,0.0,0.004999998],"min":[-0.002350548,0.0,-0.00500000129],"type":"VEC3","name":"accessorPositions"},{"bufferView":2,"byteOffset":6816,"componentType":5126,"count":4,"type":"VEC4","name":"accessorTangents"},{"bufferView":1,"byteOffset":10272,"componentType":5126,"count":4,"type":"VEC3","name":"accessorNormals"},{"bufferView":3,"byteOffset":3408,"componentType":5126,"count":4,"type":"VEC2","name":"accessorUVs"},{"bufferView":0,"byteOffset":2100,"componentType":5123,"count":6,"type":"SCALAR","name":"accessorIndices"},{"bufferView":1,"byteOffset":10320,"componentType":5126,"count":4,"max":[0.004939991,-5.551115E-19,0.002029013],"min":[-0.005417133,-5.551115E-19,-0.00530694844],"type":"VEC3","name":"accessorPositions"},{"bufferView":2,"byteOffset":6880,"componentType":5126,"count":4,"type":"VEC4","name":"accessorTangents"},{"bufferView":1,"byteOffset":10368,"componentType":5126,"count":4,"type":"VEC3","name":"accessorNormals"},{"bufferView":3,"byteOffset":3440,"componentType":5126,"count":4,"type":"VEC2","name":"accessorUVs"}],"bufferViews":[{"buffer":0,"byteLength":2112,"name":"bufferViewScalar"},{"buffer":0,"byteOffset":2112,"byteLength":10416,"byteStride":12,"name":"bufferViewFloatVec3"},{"buffer":0,"byteOffset":12528,"byteLength":6944,"byteStride":16,"name":"bufferViewFloatVec4"},{"buffer":0,"byteOffset":19472,"byteLength":3472,"byteStride":8,"name":"bufferViewFloatVec2"}],"buffers":[{"uri":"A2-1.bin","byteLength":22944}],"materials":[{"pbrMetallicRoughness":{"baseColorTexture":{"index":0},"metallicFactor":0.0,"roughnessFactor":0.450053632},"alphaMode":"BLEND","name":"lambert2"},{"pbrMetallicRoughness":{"metallicFactor":0.0,"roughnessFactor":0.450053632},"name":"W"}],"textures":[{"sampler":0,"source":0,"name":"ui_alpha_ui.png"}],"images":[{"uri":"ui_alpha_ui.png"}],"samplers":[{"magFilter":9729,"minFilter":9987}]}