{
  "asset": {
    "version": "2.0",
    "generator": "babylon.js glTF exporter for Autodesk Maya 2018.2 v20221031.2"
  },
  "scene": 0,
  "scenes": [{ "nodes": [0, 1, 2, 3, 4, 5] }],
  "nodes": [
    {
      "translation": [9.094271, -16.008007, -9.215784],
      "rotation": [0.4721662, 0.0, 0.0, 0.881509542],
      "scale": [100.0, 100.0, 100.0],
      "name": "FBXASC231FBXASC169FBXASC186FBXASC233FBXASC171FBXASC148"
    },
    {
      "mesh": 0,
      "translation": [9.888958, 0.04833121, 0.0611791164],
      "rotation": [-0.7071068, 0.0, 0.0, 0.7071067],
      "scale": [100.0, 100.0, 100.0],
      "name": "A"
    },
    {
      "rotation": [-0.7071068, 0.0, 0.0, 0.7071067],
      "scale": [100.0, 100.0, 100.0],
      "name": "AA"
    },
    {
      "rotation": [-0.824743032, 0.431378722, -2.77555756e-17, 0.3656656],
      "name": "defaultLight"
    },
    {
      "camera": 0,
      "translation": [-1.93, 12.24, -40.5069771],
      "rotation": [1.12655218e-9, 0.986855745, 0.1616038, 1.84479959e-10],
      "scale": [946.894, 946.894, 946.894],
      "name": "FBXASC230FBXASC148FBXASC157FBXASC229FBXASC189FBXASC177FBXASC230FBXASC169FBXASC159"
    },
    {
      "camera": 1,
      "translation": [10.22925, -0.463430345, -10.8669472],
      "rotation": [0.000170591054, 0.9997144, -0.00751728471, 0.022686692],
      "name": "persp1"
    }
  ],
  "cameras": [
    {
      "perspective": { "yfov": 0.471090883, "zfar": 100000.0, "znear": 10.0 },
      "type": "perspective",
      "name": "FBXASC230FBXASC148FBXASC157FBXASC229FBXASC189FBXASC177FBXASC230FBXASC169FBXASC159"
    },
    {
      "perspective": { "yfov": 0.6605947, "zfar": 10000.0, "znear": 0.1 },
      "type": "perspective",
      "name": "persp1"
    }
  ],
  "meshes": [
    {
      "primitives": [
        {
          "attributes": {
            "POSITION": 1,
            "TANGENT": 2,
            "NORMAL": 3,
            "TEXCOORD_0": 4
          },
          "indices": 0,
          "material": 0
        }
      ],
      "name": "A"
    }
  ],
  "accessors": [
    {
      "bufferView": 0,
      "componentType": 5123,
      "count": 852,
      "type": "SCALAR",
      "name": "accessorIndices"
    },
    {
      "bufferView": 1,
      "componentType": 5126,
      "count": 592,
      "max": [0.0146588227, 0.0154955713, 0.0140068587],
      "min": [-0.0155582232, -0.0147035588, -0.01665881],
      "type": "VEC3",
      "name": "accessorPositions"
    },
    {
      "bufferView": 2,
      "componentType": 5126,
      "count": 592,
      "type": "VEC4",
      "name": "accessorTangents"
    },
    {
      "bufferView": 1,
      "byteOffset": 7104,
      "componentType": 5126,
      "count": 592,
      "type": "VEC3",
      "name": "accessorNormals"
    },
    {
      "bufferView": 3,
      "componentType": 5126,
      "count": 592,
      "type": "VEC2",
      "name": "accessorUVs"
    }
  ],
  "bufferViews": [
    { "buffer": 0, "byteLength": 1704, "name": "bufferViewScalar" },
    {
      "buffer": 0,
      "byteOffset": 1704,
      "byteLength": 14208,
      "byteStride": 12,
      "name": "bufferViewFloatVec3"
    },
    {
      "buffer": 0,
      "byteOffset": 15912,
      "byteLength": 9472,
      "byteStride": 16,
      "name": "bufferViewFloatVec4"
    },
    {
      "buffer": 0,
      "byteOffset": 25384,
      "byteLength": 4736,
      "byteStride": 8,
      "name": "bufferViewFloatVec2"
    }
  ],
  "buffers": [{ "uri": "01_Light_V2.bin", "byteLength": 30120 }],
  "materials": [
    {
      "pbrMetallicRoughness": {
        "baseColorTexture": { "index": 0 },
        "metallicFactor": 0.0,
        "roughnessFactor": 0.450053632
      },
      "name": "lambert4"
    }
  ],
  "textures": [
    { "sampler": 0, "source": 0, "name": "gem_UV_A_BaseColor .png" }
  ],
  "images": [{ "uri": "gem_UV_A_BaseColor .png" }],
  "samplers": [{ "magFilter": 9729, "minFilter": 9987 }]
}
