{"asset":{"version":"2.0","generator":"babylon.js glTF exporter for Autodesk Maya 2018.2 v20221031.2"},"scene":0,"scenes":[{"nodes":[0]}],"nodes":[{"mesh":0,"translation":[9.888958,-0.1942189,0.0611791536],"rotation":[-0.6415393,0.103989422,0.09728474,0.753756762],"scale":[100.0,100.0,100.0],"name":"A"}],"meshes":[{"primitives":[{"attributes":{"POSITION":1,"TANGENT":2,"NORMAL":3,"TEXCOORD_0":4},"indices":0,"material":0}],"name":"A"}],"accessors":[{"bufferView":0,"componentType":5123,"count":852,"type":"SCALAR","name":"accessorIndices"},{"bufferView":1,"componentType":5126,"count":592,"max":[0.0146588227,0.0154955713,0.0140068587],"min":[-0.0155582232,-0.0147035588,-0.01665881],"type":"VEC3","name":"accessorPositions"},{"bufferView":2,"componentType":5126,"count":592,"type":"VEC4","name":"accessorTangents"},{"bufferView":1,"byteOffset":7104,"componentType":5126,"count":592,"type":"VEC3","name":"accessorNormals"},{"bufferView":3,"componentType":5126,"count":592,"type":"VEC2","name":"accessorUVs"}],"bufferViews":[{"buffer":0,"byteLength":1704,"name":"bufferViewScalar"},{"buffer":0,"byteOffset":1704,"byteLength":14208,"byteStride":12,"name":"bufferViewFloatVec3"},{"buffer":0,"byteOffset":15912,"byteLength":9472,"byteStride":16,"name":"bufferViewFloatVec4"},{"buffer":0,"byteOffset":25384,"byteLength":4736,"byteStride":8,"name":"bufferViewFloatVec2"}],"buffers":[{"uri":"04_Glass.bin","byteLength":30120}],"materials":[{"pbrMetallicRoughness":{"baseColorTexture":{"index":0},"metallicFactor":0.0,"roughnessFactor":0.240331292},"alphaMode":"BLEND","name":"phongE2"}],"textures":[{"sampler":0,"source":0,"name":"gem_UV_A_BaseColor .png"}],"images":[{"uri":"gem_UV_A_BaseColor .png"}],"samplers":[{"magFilter":9729,"minFilter":9987}]}