{"asset":{"version":"2.0","generator":"babylon.js glTF exporter for Autodesk Maya 2018.2 v20221031.2"},"scene":0,"scenes":[{"nodes":[0,1]}],"nodes":[{"mesh":0,"scale":[54.47699,54.47699,54.47699],"name":"pPlane1","extras":{"currentUVSet":"map1"}},{"mesh":1,"translation":[0.000107269319,0.05396241,-0.000110693654],"rotation":[0.707106769,0.0,0.0,0.707106769],"name":"pCylinder1","extras":{"currentUVSet":"map1"}}],"meshes":[{"primitives":[{"attributes":{"POSITION":1,"TANGENT":2,"NORMAL":3,"TEXCOORD_0":4},"indices":0,"material":0}],"name":"pPlane1"},{"primitives":[{"attributes":{"POSITION":6,"TANGENT":7,"NORMAL":8,"TEXCOORD_0":9},"indices":5}],"name":"pCylinder1"}],"accessors":[{"bufferView":0,"componentType":5123,"count":600,"type":"SCALAR","name":"accessorIndices"},{"bufferView":1,"componentType":5126,"count":121,"max":[0.005,1.110223E-18,0.005],"min":[-0.005,-1.110223E-18,-0.005],"type":"VEC3","name":"accessorPositions"},{"bufferView":2,"componentType":5126,"count":121,"type":"VEC4","name":"accessorTangents"},{"bufferView":1,"byteOffset":1452,"componentType":5126,"count":121,"type":"VEC3","name":"accessorNormals"},{"bufferView":3,"componentType":5126,"count":121,"type":"VEC2","name":"accessorUVs"},{"bufferView":0,"byteOffset":1200,"componentType":5123,"count":438,"type":"SCALAR","name":"accessorIndices"},{"bufferView":1,"byteOffset":2904,"componentType":5126,"count":160,"max":[0.0112207932,0.01158911,0.0543853566],"min":[-0.0112207932,0.01,-0.009488311],"type":"VEC3","name":"accessorPositions"},{"bufferView":2,"byteOffset":1936,"componentType":5126,"count":160,"type":"VEC4","name":"accessorTangents"},{"bufferView":1,"byteOffset":4824,"componentType":5126,"count":160,"type":"VEC3","name":"accessorNormals"},{"bufferView":3,"byteOffset":968,"componentType":5126,"count":160,"type":"VEC2","name":"accessorUVs"}],"bufferViews":[{"buffer":0,"byteLength":2076,"name":"bufferViewScalar"},{"buffer":0,"byteOffset":2076,"byteLength":6744,"byteStride":12,"name":"bufferViewFloatVec3"},{"buffer":0,"byteOffset":8820,"byteLength":4496,"byteStride":16,"name":"bufferViewFloatVec4"},{"buffer":0,"byteOffset":13316,"byteLength":2248,"byteStride":8,"name":"bufferViewFloatVec2"}],"buffers":[{"uri":"05_door.bin","byteLength":15564}],"materials":[{"pbrMetallicRoughness":{"baseColorFactor":[0.5,0.5,0.5,1.0],"metallicFactor":0.0,"roughnessFactor":0.450053632},"name":"lambert2"}]}