{"asset":{"version":"2.0","generator":"babylon.js glTF exporter for Autodesk Maya 2018.2 v20221031.2"},"scene":0,"scenes":[{"nodes":[0,1]}],"nodes":[{"translation":[-1.62289,0.0,0.0],"rotation":[-0.7071068,0.0,0.0,0.7071067],"scale":[192.16394,192.16394,192.16394],"name":"FBXASC233FBXASC170FBXASC168FBXASC230FBXASC158FBXASC182"},{"mesh":0,"rotation":[-0.707106769,0.0,0.0,0.707106769],"scale":[100.000084,100.000084,100.000084],"name":"Windmill_mod3FBXASC046014"}],"meshes":[{"primitives":[{"attributes":{"POSITION":1,"TANGENT":2,"NORMAL":3,"TEXCOORD_0":4},"indices":0,"material":0}],"name":"Windmill_mod3FBXASC046014"}],"accessors":[{"bufferView":0,"componentType":5123,"count":57192,"type":"SCALAR","name":"accessorIndices"},{"bufferView":1,"componentType":5126,"count":10497,"max":[0.0207186248,0.0145790027,0.05063076],"min":[-0.0218936559,-0.0140230255,0.00131318613],"type":"VEC3","name":"accessorPositions"},{"bufferView":2,"componentType":5126,"count":10497,"type":"VEC4","name":"accessorTangents"},{"bufferView":1,"byteOffset":125964,"componentType":5126,"count":10497,"type":"VEC3","name":"accessorNormals"},{"bufferView":3,"componentType":5126,"count":10497,"type":"VEC2","name":"accessorUVs"}],"bufferViews":[{"buffer":0,"byteLength":114384,"name":"bufferViewScalar"},{"buffer":0,"byteOffset":114384,"byteLength":251928,"byteStride":12,"name":"bufferViewFloatVec3"},{"buffer":0,"byteOffset":366312,"byteLength":167952,"byteStride":16,"name":"bufferViewFloatVec4"},{"buffer":0,"byteOffset":534264,"byteLength":83976,"byteStride":8,"name":"bufferViewFloatVec2"}],"buffers":[{"uri":"08_pose.bin","byteLength":618240}],"materials":[{"pbrMetallicRoughness":{"baseColorTexture":{"index":0},"metallicFactor":0.0,"roughnessFactor":0.249303535},"name":"BestFBXASC032color"}],"textures":[{"sampler":0,"source":0,"name":"Windmill_05_uv_lambert1_BaseColor.png"}],"images":[{"uri":"Windmill_05_uv_lambert1_BaseColor.png"}],"samplers":[{"magFilter":9729,"minFilter":9987}]}