{"asset":{"version":"2.0","generator":"babylon.js glTF exporter for Autodesk Maya 2018.2 v20221031.2"},"scene":0,"scenes":[{"nodes":[0,1,2,3]}],"nodes":[{"mesh":0,"name":"pCylinder1","extras":{"currentUVSet":"map1"}},{"mesh":1,"name":"pPlane2"},{"mesh":2,"name":"pPlane3"},{"name":"aiSkyDomeLight1"}],"meshes":[{"primitives":[{"attributes":{"POSITION":1,"TANGENT":2,"NORMAL":3,"TEXCOORD_0":4},"indices":0}],"name":"pCylinder1"},{"primitives":[{"attributes":{"POSITION":6,"TANGENT":7,"NORMAL":8,"TEXCOORD_0":9},"indices":5,"material":0}],"name":"pPlane2"},{"primitives":[{"attributes":{"POSITION":11,"TANGENT":12,"NORMAL":13,"TEXCOORD_0":14},"indices":10,"material":0}],"name":"pPlane3"}],"accessors":[{"bufferView":0,"componentType":5123,"count":10512,"type":"SCALAR","name":"accessorIndices"},{"bufferView":1,"componentType":5126,"count":1754,"max":[0.0171898268,0.0191524066,0.0114784166],"min":[-0.0169740133,-0.07804181,0.009889305],"type":"VEC3","name":"accessorPositions"},{"bufferView":2,"componentType":5126,"count":1754,"type":"VEC4","name":"accessorTangents"},{"bufferView":1,"byteOffset":21048,"componentType":5126,"count":1754,"type":"VEC3","name":"accessorNormals"},{"bufferView":3,"componentType":5126,"count":1754,"type":"VEC2","name":"accessorUVs"},{"bufferView":0,"byteOffset":21024,"componentType":5123,"count":600,"type":"SCALAR","name":"accessorIndices"},{"bufferView":1,"byteOffset":42096,"componentType":5126,"count":121,"max":[0.168175444,0.08884458,-0.111789383],"min":[-0.168175444,-0.0897032544,-0.111789383],"type":"VEC3","name":"accessorPositions"},{"bufferView":2,"byteOffset":28064,"componentType":5126,"count":121,"type":"VEC4","name":"accessorTangents"},{"bufferView":1,"byteOffset":43548,"componentType":5126,"count":121,"type":"VEC3","name":"accessorNormals"},{"bufferView":3,"byteOffset":14032,"componentType":5126,"count":121,"type":"VEC2","name":"accessorUVs"},{"bufferView":0,"byteOffset":22224,"componentType":5123,"count":60,"type":"SCALAR","name":"accessorIndices"},{"bufferView":1,"byteOffset":45000,"componentType":5126,"count":22,"max":[0.168175444,-0.0718484744,0.0214404333],"min":[-0.168175444,-0.0897032544,0.0214404333],"type":"VEC3","name":"accessorPositions"},{"bufferView":2,"byteOffset":30000,"componentType":5126,"count":22,"type":"VEC4","name":"accessorTangents"},{"bufferView":1,"byteOffset":45264,"componentType":5126,"count":22,"type":"VEC3","name":"accessorNormals"},{"bufferView":3,"byteOffset":15000,"componentType":5126,"count":22,"type":"VEC2","name":"accessorUVs"}],"bufferViews":[{"buffer":0,"byteLength":22344,"name":"bufferViewScalar"},{"buffer":0,"byteOffset":22344,"byteLength":45528,"byteStride":12,"name":"bufferViewFloatVec3"},{"buffer":0,"byteOffset":67872,"byteLength":30352,"byteStride":16,"name":"bufferViewFloatVec4"},{"buffer":0,"byteOffset":98224,"byteLength":15176,"byteStride":8,"name":"bufferViewFloatVec2"}],"buffers":[{"uri":"05_door.bin","byteLength":113400}],"materials":[{"pbrMetallicRoughness":{"baseColorTexture":{"index":0},"metallicFactor":0.0,"roughnessFactor":0.450053632},"name":"lambert3"}],"textures":[{"sampler":0,"source":0,"name":"sky.jpg"}],"images":[{"uri":"sky.jpg"}],"samplers":[{"magFilter":9729,"minFilter":9987}]}