{"asset":{"version":"2.0","generator":"babylon.js glTF exporter for Autodesk Maya 2018.2 v20221031.2"},"scene":0,"scenes":[{"nodes":[0,1,2,3,4,5,6,7,8,9,10,11]}],"nodes":[{"translation":[9.094271,-16.008007,-9.215784],"rotation":[0.4721662,0.0,0.0,0.881509542],"scale":[100.0,100.0,100.0],"name":"FBXASC231FBXASC169FBXASC186FBXASC233FBXASC171FBXASC148"},{"mesh":0,"name":"A"},{"rotation":[-0.7071068,0.0,0.0,0.7071067],"scale":[100.0,100.0,100.0],"name":"AA"},{"mesh":1,"name":"pPlane1"},{"mesh":2,"name":"typeMesh1"},{"mesh":3,"name":"typeMesh2"},{"mesh":4,"name":"typeMesh3"},{"mesh":5,"name":"typeMesh4"},{"name":"aiSkyDomeLight1"},{"translation":[14.8007574,-2.53032732,0.72105813],"rotation":[-0.413481385,0.199979544,-0.867474139,0.19112812],"scale":[510.279236,510.279236,510.279236],"name":"directionalLight2"},{"camera":0,"translation":[-1.93,12.24,-40.5069771],"rotation":[1.12655218E-09,0.986855745,0.1616038,1.84479959E-10],"scale":[946.894,946.894,946.894],"name":"FBXASC230FBXASC148FBXASC157FBXASC229FBXASC189FBXASC177FBXASC230FBXASC169FBXASC159"},{"camera":1,"translation":[7.3679657,0.9518095,-15.3191032],"rotation":[0.002417171,0.9973521,0.0395203941,-0.0610006675],"name":"persp1"}],"cameras":[{"perspective":{"yfov":0.471090883,"zfar":100000.0,"znear":10.0},"type":"perspective","name":"FBXASC230FBXASC148FBXASC157FBXASC229FBXASC189FBXASC177FBXASC230FBXASC169FBXASC159"},{"perspective":{"yfov":0.6605947,"zfar":10000.0,"znear":0.1},"type":"perspective","name":"persp1"}],"meshes":[{"primitives":[{"attributes":{"POSITION":1,"TANGENT":2,"NORMAL":3,"TEXCOORD_0":4},"indices":0}],"name":"A"},{"primitives":[{"attributes":{"POSITION":6,"TANGENT":7,"NORMAL":8,"TEXCOORD_0":9},"indices":5,"material":0}],"name":"pPlane1"},{"primitives":[{"attributes":{"POSITION":11,"TANGENT":12,"NORMAL":13,"COLOR_0":14,"TEXCOORD_0":15},"indices":10,"material":1}],"name":"typeMesh1"},{"primitives":[{"attributes":{"POSITION":17,"TANGENT":18,"NORMAL":19,"COLOR_0":20,"TEXCOORD_0":21},"indices":16,"material":2}],"name":"typeMesh2"},{"primitives":[{"attributes":{"POSITION":23,"TANGENT":24,"NORMAL":25,"COLOR_0":26,"TEXCOORD_0":27},"indices":22,"material":3}],"name":"typeMesh3"},{"primitives":[{"attributes":{"POSITION":29,"TANGENT":30,"NORMAL":31,"COLOR_0":32,"TEXCOORD_0":33},"indices":28,"material":4}],"name":"typeMesh4"}],"accessors":[{"bufferView":0,"componentType":5123,"count":852,"type":"SCALAR","name":"accessorIndices"},{"bufferView":1,"componentType":5126,"count":592,"max":[15.0361509,1.20646691,1.531535],"min":[12.0144472,-1.86009991,-1.48837793],"type":"VEC3","name":"accessorPositions"},{"bufferView":2,"componentType":5126,"count":592,"type":"VEC4","name":"accessorTangents"},{"bufferView":1,"byteOffset":7104,"componentType":5126,"count":592,"type":"VEC3","name":"accessorNormals"},{"bufferView":3,"componentType":5126,"count":592,"type":"VEC2","name":"accessorUVs"},{"bufferView":0,"byteOffset":1704,"componentType":5123,"count":600,"type":"SCALAR","name":"accessorIndices"},{"bufferView":1,"byteOffset":14208,"componentType":5126,"count":121,"max":[46.52899,19.5588989,27.50545],"min":[-27.3776512,-20.1822166,27.50545],"type":"VEC3","name":"accessorPositions"},{"bufferView":2,"byteOffset":9472,"componentType":5126,"count":121,"type":"VEC4","name":"accessorTangents"},{"bufferView":1,"byteOffset":15660,"componentType":5126,"count":121,"type":"VEC3","name":"accessorNormals"},{"bufferView":3,"byteOffset":4736,"componentType":5126,"count":121,"type":"VEC2","name":"accessorUVs"},{"bufferView":0,"byteOffset":2904,"componentType":5123,"count":11844,"type":"SCALAR","name":"accessorIndices"},{"bufferView":1,"byteOffset":17112,"componentType":5126,"count":3983,"max":[10.3327866,2.79830718,0.182842016],"min":[5.48121262,1.76677763,-0.419364542],"type":"VEC3","name":"accessorPositions"},{"bufferView":2,"byteOffset":11408,"componentType":5126,"count":3983,"type":"VEC4","name":"accessorTangents"},{"bufferView":1,"byteOffset":64908,"componentType":5126,"count":3983,"type":"VEC3","name":"accessorNormals"},{"bufferView":2,"byteOffset":75136,"componentType":5126,"count":3983,"type":"VEC4","name":"accessorColors"},{"bufferView":3,"byteOffset":5704,"componentType":5126,"count":3983,"type":"VEC2","name":"accessorUVs"},{"bufferView":0,"byteOffset":26592,"componentType":5123,"count":6648,"type":"SCALAR","name":"accessorIndices"},{"bufferView":1,"byteOffset":112704,"componentType":5126,"count":1664,"max":[10.2567492,1.1306175,0.15418148],"min":[8.961355,0.506594062,-0.136899665],"type":"VEC3","name":"accessorPositions"},{"bufferView":2,"byteOffset":138864,"componentType":5126,"count":1664,"type":"VEC4","name":"accessorTangents"},{"bufferView":1,"byteOffset":132672,"componentType":5126,"count":1664,"type":"VEC3","name":"accessorNormals"},{"bufferView":2,"byteOffset":165488,"componentType":5126,"count":1664,"type":"VEC4","name":"accessorColors"},{"bufferView":3,"byteOffset":37568,"componentType":5126,"count":1664,"type":"VEC2","name":"accessorUVs"},{"bufferView":0,"byteOffset":39888,"componentType":5123,"count":19050,"type":"SCALAR","name":"accessorIndices"},{"bufferView":1,"byteOffset":152640,"componentType":5126,"count":5560,"max":[10.327055,-0.08373947,-1.10788417],"min":[7.40374327,-0.7870566,-1.54138958],"type":"VEC3","name":"accessorPositions"},{"bufferView":2,"byteOffset":192112,"componentType":5126,"count":5560,"type":"VEC4","name":"accessorTangents"},{"bufferView":1,"byteOffset":219360,"componentType":5126,"count":5560,"type":"VEC3","name":"accessorNormals"},{"bufferView":2,"byteOffset":281072,"componentType":5126,"count":5560,"type":"VEC4","name":"accessorColors"},{"bufferView":3,"byteOffset":50880,"componentType":5126,"count":5560,"type":"VEC2","name":"accessorUVs"},{"bufferView":0,"byteOffset":77988,"componentType":5123,"count":221850,"type":"SCALAR","name":"accessorIndices"},{"bufferView":1,"byteOffset":286080,"componentType":5126,"count":64374,"max":[10.2693462,-1.68151152,-0.00174236833],"min":[3.486793,-2.9679935,-0.772887766],"type":"VEC3","name":"accessorPositions"},{"bufferView":2,"byteOffset":370032,"componentType":5126,"count":64374,"type":"VEC4","name":"accessorTangents"},{"bufferView":1,"byteOffset":1058568,"componentType":5126,"count":64374,"type":"VEC3","name":"accessorNormals"},{"bufferView":2,"byteOffset":1400016,"componentType":5126,"count":64374,"type":"VEC4","name":"accessorColors"},{"bufferView":3,"byteOffset":95360,"componentType":5126,"count":64374,"type":"VEC2","name":"accessorUVs"}],"bufferViews":[{"buffer":0,"byteLength":521688,"name":"bufferViewScalar"},{"buffer":0,"byteOffset":521688,"byteLength":1831056,"byteStride":12,"name":"bufferViewFloatVec3"},{"buffer":0,"byteOffset":2352744,"byteLength":2430000,"byteStride":16,"name":"bufferViewFloatVec4"},{"buffer":0,"byteOffset":4782744,"byteLength":610352,"byteStride":8,"name":"bufferViewFloatVec2"}],"buffers":[{"uri":"06_txt.bin","byteLength":5393096}],"materials":[{"pbrMetallicRoughness":{"baseColorTexture":{"index":0},"metallicFactor":0.0,"roughnessFactor":0.450053632},"name":"lambert2"},{"pbrMetallicRoughness":{"metallicFactor":0.0,"roughnessFactor":0.450053632},"name":"lambert4"},{"pbrMetallicRoughness":{"metallicFactor":0.0,"roughnessFactor":0.201679826},"name":"typeBlinn1"},{"pbrMetallicRoughness":{"metallicFactor":0.0,"roughnessFactor":0.201679826},"name":"typeBlinn2"},{"pbrMetallicRoughness":{"metallicFactor":0.0,"roughnessFactor":0.201679826},"name":"typeBlinn3"}],"textures":[{"sampler":0,"source":0,"name":"BG.jpg"}],"images":[{"uri":"BG.jpg"}],"samplers":[{"magFilter":9729,"minFilter":9987}]}